<svg width="457" height="375" viewBox="0 0 457 375" fill="none" xmlns="http://www.w3.org/2000/svg">
<g clip-path="url(#clip0_10_2776)">
<path d="M457.443 0.572418H83.4482V297.73H457.443V0.572418Z" fill="#3D3D3D"/>
<path d="M378.834 78.9928H162.056V228.238H378.834V78.9928Z" fill="white"/>
<path d="M162.056 78.9928L270.445 149.151L378.834 78.9928H162.056Z" fill="#00C4F0"/>
<path d="M457.443 0.572418H83.4482V25.0507H457.443V0.572418Z" fill="#00C4F0"/>
<path d="M444.917 18.9528C448.008 18.9528 450.514 16.2031 450.514 12.8113C450.514 9.41937 448.008 6.66971 444.917 6.66971C441.825 6.66971 439.319 9.41937 439.319 12.8113C439.319 16.2031 441.825 18.9528 444.917 18.9528Z" fill="white"/>
<path d="M351.453 252.071C373.848 252.071 392.003 232.152 392.003 207.581C392.003 183.01 373.848 163.091 351.453 163.091C329.058 163.091 310.903 183.01 310.903 207.581C310.903 232.152 329.058 252.071 351.453 252.071Z" fill="#00C4F0"/>
<path d="M344.5 231.542C343.731 231.542 342.992 231.22 342.433 230.641L327.03 214.695C326.449 214.094 326.11 213.264 326.087 212.388C326.064 211.513 326.359 210.662 326.907 210.025C327.455 209.388 328.211 209.016 329.009 208.99C329.808 208.965 330.582 209.288 331.163 209.89L344.333 223.525L371.579 190.583C372.116 189.934 372.865 189.546 373.663 189.503C374.46 189.461 375.241 189.768 375.832 190.357C376.424 190.945 376.778 191.768 376.816 192.643C376.855 193.518 376.575 194.374 376.039 195.023L346.729 230.459C346.46 230.784 346.135 231.047 345.772 231.233C345.409 231.418 345.016 231.523 344.616 231.54C344.577 231.541 344.538 231.542 344.5 231.542Z" fill="white"/>
<path d="M18.0015 119.675C18.0015 119.675 13.4931 111.817 13.6774 109.689C13.8616 107.561 19.4973 105.408 19.4973 105.408C19.4973 105.408 18.6819 103.526 17.9551 101.461C17.1169 99.0777 16.3961 96.4495 17.1826 96.1879C17.9407 95.9349 19.0914 98.0985 20.1452 100.614C21.4994 103.844 22.6947 107.649 22.6947 107.649C22.6947 107.649 22.8194 103.891 24.0863 104.13C24.6072 104.228 24.827 104.907 24.8288 107.602C24.8288 110.672 25.2666 115.459 25.2666 115.459L18.0015 119.675Z" fill="#E98862"/>
<path d="M32.3148 154.902C31.0088 154.902 29.7323 154.474 28.6489 153.674C27.5655 152.874 26.7243 151.737 26.233 150.409L14.4307 118.522L26.5943 113.104L30.1675 122.759L32.9724 107.379L45.8472 110.206L38.755 149.112C38.4781 150.631 37.7623 152.012 36.7138 153.049C35.6652 154.086 34.3399 154.724 32.9345 154.87C32.7269 154.892 32.5204 154.902 32.3148 154.902Z" fill="#08BAE1"/>
<path d="M11.0091 129.049L18.3085 127.772C18.5954 127.721 18.8693 127.605 19.1124 127.431C19.3556 127.256 19.5624 127.028 19.7193 126.759C19.8763 126.491 19.9798 126.19 20.0232 125.875C20.0666 125.56 20.0488 125.238 19.9711 124.931L15.3784 106.846C15.2426 106.311 14.9317 105.849 14.5051 105.548C14.0785 105.248 13.566 105.131 13.0655 105.219L5.76613 106.496C5.47928 106.546 5.20533 106.663 4.96222 106.837C4.71911 107.011 4.51231 107.24 4.35537 107.508C4.19842 107.777 4.09486 108.078 4.05147 108.393C4.00808 108.708 4.02583 109.03 4.10356 109.337L8.69625 127.422C8.83221 127.957 9.14313 128.419 9.56971 128.719C9.9963 129.02 10.5087 129.137 11.0091 129.049Z" fill="#C1D8ED"/>
<path d="M77.1455 291.646C66.1994 288.613 65.1221 288.159 64.7681 288.012L69.2915 275.056C69.256 275.041 69.2096 275.022 69.153 275.002C70.043 275.323 75.6021 276.91 80.2424 278.196L77.1455 291.646Z" fill="#E98862"/>
<path d="M76.6535 309.768C76.5438 310.121 76.3689 310.446 76.1398 310.721C75.9106 310.997 75.6321 311.218 75.3216 311.37C75.0112 311.522 74.6754 311.603 74.3354 311.606C73.9953 311.61 73.6583 311.536 73.3452 311.39C72.9114 311.188 72.5393 310.854 72.2726 310.428C72.0059 310.002 71.8558 309.501 71.8398 308.984L71.8483 291.953C71.8496 291.624 71.9157 291.298 72.0422 290.999C72.1687 290.7 72.3525 290.435 72.5811 290.221C74.556 288.607 76.0065 286.34 76.7192 283.754C77.2 281.712 77.1482 279.563 76.5698 277.552C76.507 277.371 76.4924 277.174 76.5278 276.984C76.5631 276.794 76.6471 276.619 76.7697 276.479C76.8923 276.34 77.0486 276.242 77.2203 276.196C77.3919 276.15 77.5719 276.159 77.7392 276.221L84.5629 278.732C84.7641 278.806 84.95 278.923 85.1099 279.076C85.2697 279.229 85.4005 279.415 85.4947 279.624C85.5888 279.833 85.6445 280.06 85.6585 280.292C85.6725 280.524 85.6446 280.758 85.5763 280.978L76.6535 309.768Z" fill="#C1D8ED"/>
<path d="M47.1813 369.23C47.1813 369.23 47.1392 354.863 47.1392 353.59H59.7845C59.7845 354.859 59.8267 369.185 59.8267 369.185L47.1813 369.23Z" fill="#E98862"/>
<path d="M80.3144 170.288C72.2009 161.386 34.5038 173.393 34.5038 173.393L34.4695 173.652L33.6975 173.175C24.1093 194.319 10.5318 225.962 1.13808 247.515C0.420402 248.997 -0.0120309 250.625 -0.132382 252.298C-0.252733 253.971 -0.0584367 255.653 0.438452 257.24C0.93534 258.827 1.72421 260.285 2.75612 261.524C3.78802 262.762 5.04093 263.755 6.43709 264.44L47.4744 284.472C45.3668 309.868 42.9473 335.242 40.9331 360.597L63.0414 363.625C67.059 333.375 71.1905 303.161 74.8793 272.874L75.4815 271.389L75.0846 271.196C77.347 252.536 79.9495 233.899 81.2231 215.105C82.3051 199.122 84.6795 175.077 80.3144 170.288ZM26.984 247.718C34.8958 233.25 44.2058 216.199 52.2609 201.727C51.8479 220.73 50.8212 239.719 49.4723 258.696L26.984 247.718Z" fill="#262626"/>
<path d="M22.764 124.31L18.4591 130.718C18.4591 130.718 6.88801 128.173 5.80292 118.394C5.67767 117.267 5.78605 114.152 7.05722 114.57C10.3691 115.659 14.4903 121.234 17.3807 121.976C16.7213 120.681 15.9168 118.851 16.4353 118.516C17.8004 117.636 21.4699 122.946 22.764 124.31Z" fill="#E98862"/>
<path d="M66.2442 101.565C66.2442 101.565 61.4016 99.2831 61.4016 85.3252L51.6677 84.2371C51.6677 84.2371 53.6741 96.5711 49.1182 100.952L66.2442 101.565Z" fill="#E98862"/>
<g opacity="0.15">
<path opacity="0.15" d="M50.8887 98.1785L58.3555 90.779L52.093 91.2706C52.087 93.6354 51.6786 95.9782 50.8887 98.1785Z" fill="black"/>
</g>
<path d="M66.4399 79.4598C66.0907 83.7258 64.2962 87.8972 61.0157 89.5608C57.4492 91.4976 53.505 92.4475 49.527 92.3276C38.9603 92.3276 39.0795 65.9552 43.6825 60.4208C48.2854 54.8864 63.1521 56.7917 65.5668 65.1386C66.8157 69.456 66.7735 75.3987 66.4399 79.4598Z" fill="#E98862"/>
<path d="M51.1123 77.573C51.5942 77.573 51.9848 77.1444 51.9848 76.6157C51.9848 76.087 51.5942 75.6584 51.1123 75.6584C50.6304 75.6584 50.2397 76.087 50.2397 76.6157C50.2397 77.1444 50.6304 77.573 51.1123 77.573Z" fill="#0F1011"/>
<path d="M44.2055 77.573C44.6874 77.573 45.0781 77.1444 45.0781 76.6157C45.0781 76.087 44.6874 75.6584 44.2055 75.6584C43.7237 75.6584 43.333 76.087 43.333 76.6157C43.333 77.1444 43.7237 77.573 44.2055 77.573Z" fill="#0F1011"/>
<path d="M42.5126 74.7196C42.406 74.7217 42.3029 74.6782 42.2251 74.5982C42.1474 74.5182 42.1011 74.4081 42.0961 74.2912C42.0912 74.1744 42.128 74.0601 42.1987 73.9725C42.2694 73.885 42.3684 73.8311 42.4747 73.8224L44.7762 73.5832C44.8841 73.5734 44.9912 73.6104 45.0747 73.6862C45.1581 73.7621 45.2111 73.8707 45.2224 73.9889C45.2275 74.0477 45.222 74.1071 45.2062 74.1636C45.1904 74.2201 45.1646 74.2727 45.1302 74.3182C45.0959 74.3637 45.0537 74.4014 45.006 74.429C44.9584 74.4566 44.9063 74.4736 44.8526 74.4791L42.5518 74.7176L42.5126 74.7196Z" fill="#0F1011"/>
<path d="M52.8265 74.7196C52.8064 74.7196 52.7862 74.7179 52.7663 74.7143L50.4504 74.3179C50.3969 74.3092 50.3456 74.289 50.2993 74.2584C50.2529 74.2278 50.2126 74.1875 50.1805 74.1398C50.1485 74.092 50.1253 74.0378 50.1124 73.9802C50.0995 73.9226 50.0971 73.8628 50.1054 73.8042C50.1137 73.7456 50.1324 73.6893 50.1605 73.6387C50.1887 73.5881 50.2256 73.544 50.2694 73.5091C50.3131 73.4742 50.3626 73.4491 50.4152 73.4353C50.4678 73.4215 50.5223 73.4193 50.5757 73.4287L52.8922 73.8251C52.9933 73.8432 53.0846 73.9023 53.148 73.9906C53.2115 74.0789 53.2425 74.1901 53.2349 74.3022C53.2274 74.4144 53.1818 74.5194 53.1072 74.5965C53.0326 74.6736 52.9344 74.7173 52.8319 74.7189L52.8265 74.7196Z" fill="#0F1011"/>
<path d="M51.2709 84.1664C51.2709 84.1664 48.0891 84.8271 45.7744 84.1664C45.7744 84.1664 45.9653 86.4841 48.5227 86.4841C51.0801 86.4841 51.2709 84.1664 51.2709 84.1664Z" fill="white"/>
<path d="M58.5632 69.1964C59.0823 88.4707 61.6342 90.2353 61.6342 90.2353C61.6342 90.2353 69.9441 83.6822 70.2229 72.0545C70.4854 61.1535 62.7518 55.4275 57.7581 54.6651C38.7846 51.77 38.1187 70.5666 38.1187 70.5666C47.6406 72.3577 60.6106 69.3986 60.6106 69.3986" fill="#0F1011"/>
<path d="M55.8099 78.5429C55.8036 79.0801 55.8947 79.6134 56.0778 80.1118C56.2608 80.6102 56.5323 81.0637 56.8764 81.446C57.2205 81.8284 57.6303 82.132 58.0822 82.3392C58.534 82.5464 59.0189 82.6531 59.5087 82.6531C59.9984 82.6531 60.4833 82.5464 60.9351 82.3392C61.387 82.132 61.7968 81.8284 62.1409 81.446C62.485 81.0637 62.7565 80.6102 62.9395 80.1118C63.1226 79.6134 63.2137 79.0801 63.2074 78.5429C63.2157 78.0075 63.1258 77.4757 62.9428 76.9793C62.7599 76.4828 62.4878 76.0319 62.1427 75.6532C61.7976 75.2746 61.3866 74.976 60.9341 74.7754C60.4816 74.5747 59.9969 74.4759 59.509 74.485C56.8745 74.6277 55.8099 76.3025 55.8099 78.5429Z" fill="#E98862"/>
<path d="M80.9588 104.183C78.2069 101.164 73.4559 99.2151 67.6631 99.2085C67.2295 102.915 46.7199 102.928 46.5634 99.2944C45.7806 99.3076 45.1724 99.3208 44.793 99.3406C30.8729 100.001 30.9138 112.308 32.2831 125.912L20.8288 120.37L15.5298 133.55L33.759 142.371C33.771 142.767 33.7795 143.164 33.7843 143.56C34.0191 165.005 28.7382 169.049 31.3401 175.603C33.8626 181.965 83.4385 184.607 84.1009 173.416C84.5224 166.294 78.8019 160.077 78.8019 146.196C78.8019 132.316 90.4428 114.589 80.9588 104.183Z" fill="#00C4F0"/>
<path d="M46.5635 99.2944C46.72 102.928 48.5205 108.273 54.0784 108.676C61.485 109.211 67.2296 102.915 67.6632 99.2085H67.6451C60.353 99.2085 50.8165 99.2217 46.5635 99.2944Z" fill="#E98862"/>
<g opacity="0.15">
<path opacity="0.15" d="M47.6248 82.2564C47.6029 82.2564 47.5811 82.2537 47.5598 82.2485L45.4136 81.7312C45.372 81.7211 45.3327 81.7015 45.2985 81.6735C45.2643 81.6456 45.2359 81.61 45.2152 81.569C45.1944 81.5281 45.1819 81.4828 45.1783 81.4362C45.1747 81.3895 45.1802 81.3426 45.1945 81.2985L46.3193 77.8121C46.3478 77.7323 46.4035 77.6678 46.4746 77.6322C46.5457 77.5966 46.6266 77.5927 46.7002 77.6213C46.7739 77.65 46.8345 77.7089 46.8693 77.7857C46.904 77.8625 46.9102 77.9511 46.8865 78.0328L45.8755 81.1663L47.6892 81.6037C47.7615 81.6214 47.8253 81.6677 47.8684 81.7337C47.9115 81.7997 47.931 81.8809 47.923 81.9617C47.915 82.0424 47.8802 82.1171 47.8252 82.1715C47.7702 82.2259 47.6988 82.2561 47.6248 82.2564Z" fill="black"/>
</g>
<path d="M31.8237 374.876C31.4837 374.875 31.1476 374.796 30.8365 374.645C30.5253 374.495 30.2459 374.275 30.0155 374.001C29.7852 373.726 29.6089 373.403 29.4977 373.05C29.3865 372.698 29.3428 372.324 29.3693 371.952C29.4059 371.436 29.5761 370.943 29.8598 370.53C30.1435 370.116 30.5288 369.801 30.9705 369.62L45.6885 364.211C45.9737 364.108 46.276 364.073 46.5746 364.11C46.8732 364.146 47.1611 364.253 47.4185 364.423C49.4418 365.963 51.862 366.75 54.3235 366.669C56.241 366.52 58.0815 365.782 59.6352 364.54C59.7717 364.417 59.9373 364.339 60.1125 364.316C60.2877 364.293 60.4654 364.324 60.6249 364.407C60.7843 364.49 60.919 364.621 61.0132 364.785C61.1073 364.949 61.1572 365.139 61.1568 365.332V373.229C61.1568 373.462 61.1149 373.692 61.0334 373.907C60.952 374.123 60.8326 374.318 60.6822 374.482C60.5317 374.647 60.3532 374.777 60.1568 374.865C59.9603 374.954 59.7499 374.999 59.5376 374.998L31.8237 374.876Z" fill="#C1D8ED"/>
</g>
<defs>
<clipPath id="clip0_10_2776">
<rect width="457" height="375" fill="white"/>
</clipPath>
</defs>
</svg>
