<svg width="457" height="377" viewBox="0 0 457 377" fill="var(--tags)" xmlns="http://www.w3.org/2000/svg">
<g clip-path="url(#clip0_316_40)">
<path d="M457.443 -0.300293H83.4482V299.138H457.443V-0.300293Z" fill="white"/>
<path d="M378.834 78.7218H162.056V229.112H378.834V78.7218Z" fill="#E4F8FF"/>
<path d="M162.056 78.7218L270.445 149.419L378.834 78.7218H162.056Z" fill="#00C4F0"/>
<path d="M457.443 -0.300293H83.4482V24.3658H457.443V-0.300293Z" fill="#00C4F0"/>
<path d="M444.917 18.2212C448.008 18.2212 450.514 15.4504 450.514 12.0325C450.514 8.61463 448.008 5.84387 444.917 5.84387C441.825 5.84387 439.319 8.61463 439.319 12.0325C439.319 15.4504 441.825 18.2212 444.917 18.2212Z" fill="white"/>
<path d="M351.453 253.128C373.849 253.128 392.004 233.057 392.004 208.297C392.004 183.537 373.849 163.466 351.453 163.466C329.058 163.466 310.903 183.537 310.903 208.297C310.903 233.057 329.058 253.128 351.453 253.128Z" fill="#00C4F0"/>
<path d="M344.5 232.442C343.731 232.442 342.992 232.117 342.433 231.534L327.03 215.466C326.449 214.86 326.11 214.023 326.087 213.141C326.064 212.258 326.359 211.402 326.907 210.76C327.455 210.117 328.211 209.742 329.009 209.717C329.808 209.691 330.582 210.017 331.163 210.623L344.333 224.362L371.579 191.168C372.116 190.515 372.865 190.123 373.663 190.08C374.46 190.038 375.241 190.347 375.832 190.94C376.424 191.533 376.778 192.362 376.816 193.244C376.855 194.126 376.575 194.988 376.039 195.642L346.729 231.35C346.46 231.678 346.135 231.943 345.772 232.13C345.409 232.317 345.016 232.422 344.616 232.439C344.577 232.441 344.538 232.442 344.5 232.442Z" fill="white"/>
<path d="M18.0015 119.716C18.0015 119.716 13.4931 111.797 13.6774 109.653C13.8616 107.509 19.4973 105.34 19.4973 105.34C19.4973 105.34 18.6819 103.443 17.9551 101.362C17.1169 98.9607 16.3961 96.3124 17.1826 96.0488C17.9407 95.7938 19.0914 97.9741 20.1452 100.509C21.4994 103.763 22.6947 107.598 22.6947 107.598C22.6947 107.598 22.8194 103.811 24.0863 104.052C24.6072 104.151 24.827 104.835 24.8288 107.55C24.8288 110.644 25.2666 115.468 25.2666 115.468L18.0015 119.716Z" fill="#E98862"/>
<path d="M32.3149 155.213C31.0088 155.213 29.7323 154.783 28.6489 153.976C27.5655 153.17 26.7243 152.024 26.233 150.686L14.4307 118.554L26.5943 113.095L30.1675 122.824L32.9724 107.326L45.8472 110.174L38.755 149.379C38.4781 150.91 37.7623 152.301 36.7138 153.346C35.6652 154.391 34.3399 155.034 32.9345 155.181C32.7269 155.203 32.5204 155.214 32.3149 155.213Z" fill="#08BAE1"/>
<path d="M11.0091 129.162L18.3085 127.875C18.5954 127.824 18.8693 127.707 19.1124 127.532C19.3556 127.356 19.5624 127.125 19.7193 126.855C19.8763 126.585 19.9798 126.281 20.0232 125.963C20.0666 125.646 20.0488 125.322 19.9711 125.012L15.3784 106.789C15.2426 106.249 14.9317 105.784 14.5051 105.481C14.0785 105.179 13.566 105.06 13.0655 105.149L5.76613 106.436C5.47928 106.487 5.20533 106.604 4.96222 106.78C4.71911 106.955 4.51231 107.186 4.35537 107.456C4.19842 107.727 4.09486 108.03 4.05147 108.348C4.00808 108.665 4.02583 108.99 4.10356 109.299L8.69625 127.522C8.83221 128.062 9.14313 128.527 9.56971 128.83C9.9963 129.133 10.5087 129.251 11.0091 129.162Z" fill="#C1D8ED"/>
<path d="M77.1455 293.006C66.1994 289.95 65.1221 289.493 64.7681 289.345L69.2915 276.29C69.256 276.274 69.2096 276.255 69.153 276.234C70.043 276.558 75.6021 278.158 80.2424 279.453L77.1455 293.006Z" fill="#E98862"/>
<path d="M76.6535 311.267C76.5438 311.623 76.3689 311.95 76.1398 312.228C75.9106 312.506 75.6321 312.728 75.3216 312.882C75.0112 313.035 74.6754 313.116 74.3354 313.12C73.9953 313.123 73.6583 313.049 73.3452 312.902C72.9114 312.699 72.5393 312.362 72.2726 311.933C72.0059 311.503 71.8558 310.998 71.8398 310.477L71.8483 293.316C71.8496 292.984 71.9157 292.656 72.0422 292.355C72.1687 292.054 72.3525 291.786 72.5811 291.571C74.556 289.944 76.0065 287.66 76.7192 285.053C77.2 282.996 77.1482 280.831 76.5698 278.804C76.507 278.622 76.4924 278.423 76.5278 278.232C76.5631 278.04 76.6471 277.864 76.7697 277.724C76.8923 277.583 77.0486 277.484 77.2203 277.438C77.3919 277.392 77.5719 277.401 77.7392 277.463L84.5629 279.993C84.7641 280.068 84.95 280.186 85.1099 280.34C85.2697 280.494 85.4005 280.682 85.4947 280.892C85.5888 281.103 85.6445 281.331 85.6585 281.565C85.6725 281.8 85.6446 282.034 85.5763 282.257L76.6535 311.267Z" fill="#C1D8ED"/>
<path d="M47.1813 371.186C47.1813 371.186 47.1392 356.708 47.1392 355.426H59.7845C59.7845 356.704 59.8267 371.141 59.8267 371.141L47.1813 371.186Z" fill="#E98862"/>
<path d="M80.3144 170.718C72.2009 161.747 34.5038 173.847 34.5038 173.847L34.4695 174.107L33.6975 173.627C24.1093 194.932 10.5318 226.819 1.13808 248.537C0.420402 250.03 -0.0120309 251.671 -0.132382 253.357C-0.252733 255.042 -0.0584367 256.737 0.438452 258.337C0.93534 259.936 1.72421 261.405 2.75612 262.653C3.78802 263.901 5.04093 264.902 6.43709 265.592L47.4744 285.778C45.3668 311.368 42.9473 336.937 40.9331 362.487L63.0414 365.537C67.059 335.056 71.1905 304.61 74.8793 274.091L75.4815 272.594L75.0846 272.399C77.347 253.597 79.9495 234.816 81.2231 215.878C82.3051 199.773 84.6795 175.543 80.3144 170.718ZM26.984 248.742C34.8958 234.162 44.2058 216.981 52.2609 202.398C51.8479 221.546 50.8212 240.681 49.4723 259.803L26.984 248.742Z" fill="#E4F8FF"/>
<path d="M22.764 124.386L18.4591 130.844C18.4591 130.844 6.88801 128.28 5.80292 118.425C5.67767 117.29 5.78605 114.151 7.05722 114.572C10.3691 115.669 14.4903 121.287 17.3807 122.035C16.7213 120.73 15.9168 118.886 16.4353 118.549C17.8004 117.662 21.4699 123.012 22.764 124.386Z" fill="#E98862"/>
<path d="M66.2442 101.467C66.2442 101.467 61.4016 99.1678 61.4016 85.1028L51.6677 84.0063C51.6677 84.0063 53.6741 96.4349 49.1182 100.849L66.2442 101.467Z" fill="#E98862"/>
<g opacity="0.15">
<path opacity="0.15" d="M50.8887 98.0546L58.3555 90.5984L52.093 91.0937C52.087 93.4767 51.6786 95.8374 50.8887 98.0546Z" fill="black"/>
</g>
<path d="M66.4399 79.1924C66.0907 83.4911 64.2962 87.6945 61.0157 89.3708C57.4492 91.3226 53.505 92.2798 49.527 92.1589C38.9603 92.1589 39.0795 65.5841 43.6825 60.0073C48.2854 54.4304 63.1521 56.3504 65.5668 64.7613C66.8157 69.1119 66.7735 75.1002 66.4399 79.1924Z" fill="#E98862"/>
<path d="M51.1123 77.2911C51.5942 77.2911 51.9848 76.8592 51.9848 76.3265C51.9848 75.7937 51.5942 75.3618 51.1123 75.3618C50.6304 75.3618 50.2397 75.7937 50.2397 76.3265C50.2397 76.8592 50.6304 77.2911 51.1123 77.2911Z" fill="#0F1011"/>
<path d="M44.2055 77.2911C44.6874 77.2911 45.0781 76.8592 45.0781 76.3265C45.0781 75.7937 44.6874 75.3618 44.2055 75.3618C43.7237 75.3618 43.333 75.7937 43.333 76.3265C43.333 76.8592 43.7237 77.2911 44.2055 77.2911Z" fill="#0F1011"/>
<path d="M42.5126 74.4158C42.406 74.4179 42.3029 74.374 42.2251 74.2934C42.1474 74.2128 42.1011 74.1019 42.0961 73.9841C42.0912 73.8664 42.128 73.7512 42.1987 73.663C42.2694 73.5748 42.3684 73.5205 42.4747 73.5117L44.7762 73.2707C44.8841 73.2609 44.9912 73.2981 45.0747 73.3745C45.1581 73.4509 45.2111 73.5604 45.2224 73.6795C45.2275 73.7388 45.222 73.7986 45.2062 73.8556C45.1904 73.9125 45.1646 73.9654 45.1302 74.0113C45.0959 74.0572 45.0537 74.0951 45.006 74.123C44.9584 74.1508 44.9063 74.168 44.8526 74.1735L42.5518 74.4138L42.5126 74.4158Z" fill="#0F1011"/>
<path d="M52.8265 74.4158C52.8064 74.4159 52.7862 74.4141 52.7663 74.4105L50.4504 74.0111C50.3969 74.0023 50.3456 73.9819 50.2993 73.9511C50.2529 73.9203 50.2126 73.8797 50.1805 73.8316C50.1485 73.7834 50.1253 73.7288 50.1124 73.6708C50.0995 73.6127 50.0971 73.5524 50.1054 73.4934C50.1137 73.4343 50.1324 73.3776 50.1605 73.3266C50.1887 73.2756 50.2256 73.2312 50.2694 73.1961C50.3131 73.1609 50.3626 73.1356 50.4152 73.1217C50.4678 73.1078 50.5223 73.1055 50.5757 73.115L52.8922 73.5144C52.9933 73.5327 53.0846 73.5922 53.148 73.6812C53.2115 73.7702 53.2425 73.8823 53.2349 73.9953C53.2274 74.1083 53.1818 74.2141 53.1072 74.2918C53.0326 74.3695 52.9344 74.4135 52.8319 74.4152L52.8265 74.4158Z" fill="#0F1011"/>
<path d="M51.2709 83.9352C51.2709 83.9352 48.0891 84.6009 45.7744 83.9352C45.7744 83.9352 45.9653 86.2706 48.5227 86.2706C51.0801 86.2706 51.2709 83.9352 51.2709 83.9352Z" fill="white"/>
<path d="M58.5632 68.8502C59.0823 88.2724 61.6342 90.0505 61.6342 90.0505C61.6342 90.0505 69.9441 83.4471 70.2229 71.7302C70.4854 60.7456 62.7518 54.9757 57.7581 54.2074C38.7846 51.2902 38.1187 70.231 38.1187 70.231C47.6406 72.0358 60.6106 69.054 60.6106 69.054" fill="#0F1011"/>
<path d="M55.8099 78.2684C55.8036 78.8098 55.8947 79.3471 56.0778 79.8493C56.2608 80.3515 56.5323 80.8085 56.8764 81.1938C57.2205 81.5791 57.6303 81.885 58.0822 82.0938C58.534 82.3026 59.0189 82.4101 59.5087 82.4101C59.9984 82.4101 60.4833 82.3026 60.9351 82.0938C61.387 81.885 61.7968 81.5791 62.1409 81.1938C62.485 80.8085 62.7565 80.3515 62.9395 79.8493C63.1226 79.3471 63.2137 78.8098 63.2074 78.2684C63.2157 77.7289 63.1258 77.193 62.9428 76.6928C62.7599 76.1925 62.4878 75.7381 62.1427 75.3566C61.7976 74.975 61.3866 74.6742 60.9341 74.4719C60.4816 74.2697 59.9969 74.1702 59.509 74.1794C56.8745 74.3232 55.8099 76.0109 55.8099 78.2684Z" fill="#E98862"/>
<path d="M80.9588 104.106C78.2069 101.063 73.4559 99.0992 67.6631 99.0925C67.2295 102.827 46.7199 102.841 46.5634 99.1791C45.7806 99.1924 45.1724 99.2057 44.793 99.2257C30.8728 99.8914 30.9138 112.293 32.2831 126.001L20.8288 120.416L15.5298 133.697L33.759 142.586C33.771 142.986 33.7795 143.385 33.7843 143.785C34.0191 165.394 28.7382 169.469 31.3401 176.073C33.8626 182.484 83.4385 185.147 84.1009 173.869C84.5224 166.693 78.8019 160.428 78.8019 146.441C78.8019 132.454 90.4428 114.591 80.9588 104.106Z" fill="#00C4F0"/>
<path d="M46.5635 99.1791C46.72 102.841 48.5205 108.226 54.0784 108.633C61.485 109.172 67.2296 102.827 67.6632 99.0925H67.6451C60.353 99.0925 50.8165 99.1058 46.5635 99.1791Z" fill="#E98862"/>
<g opacity="0.15">
<path opacity="0.15" d="M47.6248 82.0105C47.6029 82.0104 47.5811 82.0077 47.5598 82.0025L45.4136 81.4812C45.372 81.4711 45.3327 81.4513 45.2985 81.4231C45.2643 81.3949 45.2359 81.359 45.2152 81.3178C45.1944 81.2766 45.1819 81.2309 45.1783 81.1839C45.1747 81.1369 45.1802 81.0896 45.1945 81.0451L46.3193 77.5321C46.3478 77.4516 46.4035 77.3866 46.4746 77.3507C46.5457 77.3149 46.6266 77.3109 46.7002 77.3398C46.7739 77.3687 46.8345 77.4281 46.8693 77.5054C46.904 77.5828 46.9102 77.6721 46.8865 77.7544L45.8755 80.912L47.6892 81.3527C47.7615 81.3705 47.8253 81.4172 47.8684 81.4837C47.9115 81.5503 47.931 81.632 47.923 81.7134C47.915 81.7948 47.8802 81.8701 47.8252 81.9249C47.7702 81.9797 47.6988 82.0102 47.6248 82.0105Z" fill="black"/>
</g>
<path d="M31.8237 376.875C31.4837 376.874 31.1476 376.794 30.8365 376.643C30.5253 376.491 30.2459 376.27 30.0155 375.993C29.7852 375.717 29.6089 375.39 29.4977 375.035C29.3865 374.68 29.3428 374.303 29.3693 373.928C29.4059 373.409 29.5761 372.911 29.8598 372.495C30.1435 372.079 30.5288 371.761 30.9705 371.579L45.6885 366.128C45.9737 366.024 46.276 365.989 46.5746 366.026C46.8732 366.063 47.1611 366.17 47.4185 366.342C49.4418 367.893 51.862 368.687 54.3235 368.605C56.241 368.454 58.0815 367.711 59.6352 366.459C59.7717 366.336 59.9373 366.258 60.1125 366.234C60.2877 366.21 60.4654 366.242 60.6249 366.326C60.7843 366.41 60.919 366.542 61.0132 366.707C61.1073 366.872 61.1572 367.063 61.1568 367.258V375.215C61.1568 375.45 61.1149 375.682 61.0334 375.899C60.952 376.116 60.8326 376.313 60.6822 376.478C60.5317 376.644 60.3532 376.775 60.1568 376.864C59.9603 376.953 59.7499 376.999 59.5376 376.998L31.8237 376.875Z" fill="#C1D8ED"/>
</g>
<defs>
<clipPath id="clip0_316_40">
<rect width="457" height="377" fill="white"/>
</clipPath>
</defs>
</svg>
